<svg xmlns="http://www.w3.org/2000/svg" xmlns:xlink="http://www.w3.org/1999/xlink" zoomAndPan="magnify" preserveAspectRatio="xMidYMid meet" version="1.0" viewBox="21.12 130.49 332.77 114.01"><defs><g/><clipPath id="05a2cc5ba8"><path d="M 24.117188 133.492188 L 350.882812 133.492188 L 350.882812 241.492188 L 24.117188 241.492188 Z M 24.117188 133.492188 " clip-rule="nonzero"/></clipPath><clipPath id="9bc19c0501"><path d="M 35.238281 141.976562 L 212.445312 141.976562 L 212.445312 233.023438 L 35.238281 233.023438 Z M 35.238281 141.976562 " clip-rule="nonzero"/></clipPath></defs><g clip-path="url(#05a2cc5ba8)"><path stroke-linecap="butt" transform="matrix(0.75, 0, 0, 0.75, 24.117667, 133.491817)" fill="none" stroke-linejoin="miter" d="M -0.000638688 0.000494221 L 435.68689 0.000494221 L 435.68689 144.016129 L -0.000638688 144.016129 Z M -0.000638688 0.000494221 " stroke="#264232" stroke-width="6" stroke-opacity="1" stroke-miterlimit="4"/></g><g clip-path="url(#9bc19c0501)"><path fill="#264232" d="M 35.238281 141.976562 L 212.347656 141.976562 L 212.347656 233.023438 L 35.238281 233.023438 Z M 35.238281 141.976562 " fill-opacity="1" fill-rule="nonzero"/></g><g fill="#ffffff" fill-opacity="1"><g transform="translate(42.809617, 196.499987)"><g><path d="M 9.410156 0.363281 C 13.707031 0.363281 16.488281 -1.742188 16.488281 -5.167969 C 16.488281 -8.0625 14.550781 -9.800781 9.523438 -11.039062 C 5.703125 -11.964844 4.4375 -12.976562 4.4375 -14.605469 C 4.4375 -16.488281 6.125 -17.667969 8.933594 -17.667969 C 11.824219 -17.667969 13.621094 -16.207031 13.679688 -13.847656 L 16.121094 -13.847656 C 16.09375 -17.667969 13.339844 -20.027344 8.933594 -20.027344 C 4.632812 -20.027344 1.910156 -17.917969 1.910156 -14.605469 C 1.910156 -11.570312 4.074219 -9.886719 8.902344 -8.734375 C 12.441406 -7.894531 13.929688 -6.910156 13.929688 -5.082031 C 13.929688 -3.144531 12.191406 -1.996094 9.410156 -1.996094 C 6.347656 -1.996094 4.214844 -3.511719 4.15625 -6.039062 L 1.683594 -6.039062 C 1.714844 -2.191406 4.71875 0.363281 9.410156 0.363281 Z M 9.410156 0.363281 "/></g></g></g><g fill="#ffffff" fill-opacity="1"><g transform="translate(63.110937, 196.499987)"><g><path d="M 2.863281 0 L 5.335938 0 L 5.335938 -6.460938 L 9.523438 -6.460938 C 13.960938 -6.460938 16.824219 -9.015625 16.824219 -13.0625 C 16.824219 -17.078125 13.960938 -19.660156 9.523438 -19.660156 L 2.863281 -19.660156 Z M 5.335938 -8.761719 L 5.335938 -17.300781 L 9.464844 -17.300781 C 12.640625 -17.300781 14.296875 -15.839844 14.296875 -13.03125 C 14.296875 -10.222656 12.640625 -8.761719 9.464844 -8.761719 Z M 5.335938 -8.761719 "/></g></g></g><g fill="#ffffff" fill-opacity="1"><g transform="translate(83.187632, 196.499987)"><g><path d="M 2.863281 0 L 5.335938 0 L 5.335938 -19.660156 L 2.863281 -19.660156 Z M 2.863281 0 "/></g></g></g><g fill="#ffffff" fill-opacity="1"><g transform="translate(93.521229, 196.499987)"><g><path d="M 2.863281 0 L 5.335938 0 L 5.335938 -7.050781 L 9.660156 -7.050781 L 14.464844 0 L 17.441406 0 L 12.5 -7.304688 C 15.363281 -8.003906 17.132812 -10.167969 17.132812 -13.339844 C 17.132812 -17.246094 14.4375 -19.660156 10.363281 -19.660156 L 2.863281 -19.660156 Z M 5.335938 -9.410156 L 5.335938 -17.300781 L 10.082031 -17.300781 C 12.949219 -17.300781 14.605469 -15.839844 14.605469 -13.339844 C 14.605469 -10.839844 12.949219 -9.410156 10.082031 -9.410156 Z M 5.335938 -9.410156 "/></g></g></g><g fill="#ffffff" fill-opacity="1"><g transform="translate(114.777203, 196.499987)"><g><path d="M 2.863281 0 L 5.335938 0 L 5.335938 -19.660156 L 2.863281 -19.660156 Z M 2.863281 0 "/></g></g></g><g fill="#ffffff" fill-opacity="1"><g transform="translate(125.1108, 196.499987)"><g><path d="M 7.613281 0 L 10.082031 0 L 10.082031 -17.300781 L 16.710938 -17.300781 L 16.710938 -19.660156 L 0.953125 -19.660156 L 0.953125 -17.300781 L 7.613281 -17.300781 Z M 7.613281 0 "/></g></g></g><g fill="#ffffff" fill-opacity="1"><g transform="translate(144.934786, 196.499987)"><g><path d="M 10.222656 0.335938 C 14.96875 0.335938 17.835938 -2.78125 17.835938 -8.003906 L 17.835938 -19.660156 L 15.363281 -19.660156 L 15.363281 -8.171875 C 15.363281 -4.15625 13.59375 -2.078125 10.222656 -2.078125 C 6.882812 -2.078125 5.082031 -4.15625 5.082031 -8.171875 L 5.082031 -19.660156 L 2.640625 -19.660156 L 2.640625 -8.003906 C 2.640625 -2.78125 5.476562 0.335938 10.222656 0.335938 Z M 10.222656 0.335938 "/></g></g></g><g fill="#ffffff" fill-opacity="1"><g transform="translate(167.538514, 196.499987)"><g><path d="M 0.476562 0 L 3.117188 0 L 4.914062 -4.464844 L 14.492188 -4.464844 L 16.347656 0 L 18.960938 0 L 10.871094 -19.660156 L 8.566406 -19.660156 Z M 5.871094 -6.769531 L 9.71875 -16.207031 L 13.566406 -6.769531 Z M 5.871094 -6.769531 "/></g></g></g><g fill="#ffffff" fill-opacity="1"><g transform="translate(189.103348, 196.499987)"><g><path d="M 2.863281 0 L 14.886719 0 L 14.886719 -2.359375 L 5.335938 -2.359375 L 5.335938 -19.660156 L 2.863281 -19.660156 Z M 2.863281 0 "/></g></g></g><g fill="#264232" fill-opacity="1"><g transform="translate(219.007476, 196.499987)"><g><path d="M 11.261719 0.421875 C 16.683594 0.421875 20.785156 -2.863281 21.628906 -7.863281 L 15.871094 -7.863281 C 15.167969 -6.011719 13.511719 -4.832031 11.375 -4.832031 C 8.621094 -4.832031 6.714844 -6.882812 6.714844 -9.832031 C 6.714844 -12.808594 8.652344 -14.832031 11.429688 -14.832031 C 13.480469 -14.832031 15.195312 -13.679688 15.785156 -11.910156 L 21.515625 -11.910156 C 20.503906 -16.878906 16.460938 -20.082031 11.207031 -20.082031 C 5.140625 -20.082031 0.953125 -15.898438 0.953125 -9.832031 C 0.953125 -3.765625 5.140625 0.421875 11.261719 0.421875 Z M 11.261719 0.421875 "/></g></g></g><g fill="#264232" fill-opacity="1"><g transform="translate(241.526094, 196.499987)"><g><path d="M 2.078125 0 L 15.871094 0 L 15.871094 -4.632812 L 7.695312 -4.632812 L 7.695312 -7.667969 L 14.800781 -7.667969 L 14.800781 -12.21875 L 7.695312 -12.21875 L 7.695312 -15.082031 L 15.558594 -15.082031 L 15.558594 -19.660156 L 2.078125 -19.660156 Z M 2.078125 0 "/></g></g></g><g fill="#264232" fill-opacity="1"><g transform="translate(258.653721, 196.499987)"><g><path d="M 2.078125 0 L 7.695312 0 L 7.695312 -10.027344 L 15.167969 0 L 19.773438 0 L 19.773438 -19.660156 L 14.183594 -19.660156 L 14.183594 -9.691406 L 6.714844 -19.660156 L 2.078125 -19.660156 Z M 2.078125 0 "/></g></g></g><g fill="#264232" fill-opacity="1"><g transform="translate(280.526549, 196.499987)"><g><path d="M 6.769531 0 L 12.414062 0 L 12.414062 -14.410156 L 18.398438 -14.410156 L 18.398438 -19.660156 L 0.785156 -19.660156 L 0.785156 -14.410156 L 6.769531 -14.410156 Z M 6.769531 0 "/></g></g></g><g fill="#264232" fill-opacity="1"><g transform="translate(299.703882, 196.499987)"><g><path d="M 2.078125 0 L 15.871094 0 L 15.871094 -4.632812 L 7.695312 -4.632812 L 7.695312 -7.667969 L 14.800781 -7.667969 L 14.800781 -12.21875 L 7.695312 -12.21875 L 7.695312 -15.082031 L 15.558594 -15.082031 L 15.558594 -19.660156 L 2.078125 -19.660156 Z M 2.078125 0 "/></g></g></g><g fill="#264232" fill-opacity="1"><g transform="translate(316.831509, 196.499987)"><g><path d="M 2.078125 0 L 7.753906 0 L 7.753906 -5.589844 L 9.886719 -5.589844 L 12.695312 0 L 19.128906 0 L 15.503906 -6.628906 C 17.582031 -7.78125 18.761719 -9.859375 18.761719 -12.609375 C 18.761719 -16.964844 15.8125 -19.660156 11.039062 -19.660156 L 2.078125 -19.660156 Z M 7.640625 -10.113281 L 7.640625 -15.027344 L 10.28125 -15.027344 C 12.078125 -15.027344 13.0625 -14.15625 13.0625 -12.582031 C 13.0625 -11.011719 12.078125 -10.113281 10.28125 -10.113281 Z M 7.640625 -10.113281 "/></g></g></g></svg>